<?xml version="1.0" encoding="UTF-8" standalone="no" ?>
<!DOCTYPE svg PUBLIC "-//W3C//DTD SVG 1.1//EN" "http://www.w3.org/Graphics/SVG/1.1/DTD/svg11.dtd">
<svg xmlns="http://www.w3.org/2000/svg" xmlns:xlink="http://www.w3.org/1999/xlink" version="1.1" width="1080" height="1080" viewBox="0 0 1080 1080" xml:space="preserve">
<desc>Created with Fabric.js 5.2.4</desc>
<defs>
</defs>
<g transform="matrix(1 0 0 1 540 540)" id="b28b0ff3-3bb7-40a9-8e72-09b7d9a057fd"  >
<rect style="stroke: none; stroke-width: 1; stroke-dasharray: none; stroke-linecap: butt; stroke-dashoffset: 0; stroke-linejoin: miter; stroke-miterlimit: 4; fill: rgb(255,255,255); fill-rule: nonzero; opacity: 1; visibility: hidden;" vector-effect="non-scaling-stroke"  x="-540" y="-540" rx="0" ry="0" width="1080" height="1080" />
</g>
<g transform="matrix(1 0 0 1 540 540)" id="deb9d0c4-1a4c-4e99-9d17-a4589116c0e3"  >
</g>
<g transform="matrix(3.98 0 0 3.98 540 540)"  >
<g style="" vector-effect="non-scaling-stroke"   >
		<g transform="matrix(0.13 0 0 -0.13 4.75 -35.01)"  >
<path style="stroke: none; stroke-width: 1; stroke-dasharray: none; stroke-linecap: butt; stroke-dashoffset: 0; stroke-linejoin: miter; stroke-miterlimit: 4; fill: rgb(0,0,0); fill-rule: nonzero; opacity: 1;" vector-effect="non-scaling-stroke"  transform=" translate(-1694.63, -1522.62)" d="M 1511 2245 C 1277 2194 1073 2047 950 1840 C 783 1561 793 1193 974 923 C 1000 884 1032 842 1045 830 C 1068 808 1072 808 1117 820 C 1221 848 1231 857 1258 942 L 1282 1020 L 1468 1022 L 1655 1025 L 1655 1250 C 1655 1502 1650 1528 1592 1592 C 1532 1658 1498 1670 1365 1670 C 1249 1670 1249 1670 1256 1648 C 1290 1536 1371 1479 1508 1472 L 1590 1467 L 1590 1433 L 1590 1398 L 1493 1402 C 1412 1405 1386 1411 1344 1433 C 1246 1483 1170 1602 1170 1706 L 1170 1752 L 1333 1748 C 1513 1744 1551 1734 1623 1670 L 1660 1638 L 1660 1705 C 1660 1792 1674 1836 1719 1897 C 1797 2000 1879 2030 2087 2030 C 2230 2030 2229 2031 2211 1942 C 2178 1777 2062 1682 1888 1677 L 1805 1675 L 1802 1713 L 1799 1750 L 1867 1750 C 1946 1750 1990 1761 2035 1791 C 2069 1815 2124 1889 2135 1928 C 2141 1950 2141 1950 2028 1950 C 1898 1950 1858 1937 1798 1875 C 1737 1812 1730 1776 1730 1537 L 1730 1328 L 1767 1360 C 1841 1425 1877 1435 2055 1435 L 2215 1435 L 2213 1376 C 2209 1263 2123 1146 2014 1108 C 1974 1093 1874 1084 1813 1089 C 1805 1090 1800 1104 1800 1125 L 1800 1160 L 1869 1160 C 1981 1160 2061 1199 2105 1275 C 2155 1362 2157 1360 2028 1360 C 1893 1360 1854 1346 1794 1277 C 1746 1222 1730 1175 1730 1087 L 1730 1020 L 1917 1018 L 2105 1015 L 2138 913 L 2171 810 L 2222 810 C 2257 810 2276 805 2285 794 C 2295 780 2302 784 2340 826 C 2440 939 2509 1079 2541 1235 C 2635 1688 2331 2148 1875 2245 C 1788 2263 1597 2263 1511 2245 z M 1524 2148 C 1531 2112 1526 2104 1488 2095 C 1464 2089 1459 2092 1450 2115 C 1436 2153 1437 2157 1468 2168 C 1511 2184 1517 2182 1524 2148 z M 1385 2099 C 1394 2082 1400 2067 1398 2066 C 1396 2064 1370 2049 1340 2032 C 1113 1903 970 1664 970 1413 L 970 1330 L 930 1330 L 890 1330 L 890 1393 C 890 1529 933 1687 1000 1800 C 1067 1914 1208 2052 1315 2108 C 1367 2135 1367 2135 1385 2099 z" stroke-linecap="round" />
</g>
		<g transform="matrix(0.13 0 0 -0.13 15.29 64.23)"  >
<path style="stroke: none; stroke-width: 1; stroke-dasharray: none; stroke-linecap: butt; stroke-dashoffset: 0; stroke-linejoin: miter; stroke-miterlimit: 4; fill: rgb(0,0,0); fill-rule: nonzero; opacity: 1;" vector-effect="non-scaling-stroke"  transform=" translate(-1773.73, -778.33)" d="M 1330 924 C 1324 910 1320 895 1320 891 C 1320 886 1364 880 1418 878 C 1503 873 1531 866 1645 822 C 1717 795 1808 760 1848 745 C 1905 724 1926 710 1945 682 C 1959 662 1970 638 1970 629 C 1970 621 1973 611 1976 607 C 1982 601 2210 676 2223 690 C 2228 694 2229 707 2225 719 C 2219 738 2211 740 2129 740 L 2040 740 L 2040 775 C 2040 806 2043 810 2066 810 C 2083 810 2090 814 2087 823 C 2085 829 2075 861 2066 893 L 2049 950 L 1694 950 L 1340 950 L 1330 924 z M 1940 845 C 1940 811 1939 810 1900 810 C 1863 810 1860 812 1860 838 C 1860 875 1866 880 1907 880 C 1938 880 1940 878 1940 845 z" stroke-linecap="round" />
</g>
		<g transform="matrix(0.13 0 0 -0.13 -4.56 96.94)"  >
<path style="stroke: none; stroke-width: 1; stroke-dasharray: none; stroke-linecap: butt; stroke-dashoffset: 0; stroke-linejoin: miter; stroke-miterlimit: 4; fill: rgb(0,0,0); fill-rule: nonzero; opacity: 1;" vector-effect="non-scaling-stroke"  transform=" translate(-1624.88, -532.98)" d="M 1323 799 C 1294 794 1209 770 1135 745 C 1004 702 995 700 880 700 L 760 700 L 760 565 L 760 430 L 883 430 C 1003 430 1011 428 1325 349 C 1680 260 1767 248 1865 273 C 1898 282 2035 341 2170 404 C 2465 544 2461 542 2480 574 C 2493 597 2493 603 2480 627 C 2453 675 2420 677 2312 637 C 2258 618 2155 580 2081 555 C 2007 529 1931 497 1912 484 C 1853 444 1808 451 1615 529 C 1450 595 1445 598 1447 625 C 1448 641 1453 657 1458 662 C 1463 667 1537 643 1631 605 C 1814 531 1853 524 1881 559 C 1892 572 1900 590 1900 600 C 1900 645 1857 667 1550 775 C 1471 803 1393 811 1323 799 z" stroke-linecap="round" />
</g>
</g>
</g>
</svg>