<?xml version="1.0" standalone="no"?>
<!DOCTYPE svg PUBLIC "-//W3C//DTD SVG 20010904//EN"
 "http://www.w3.org/TR/2001/REC-SVG-20010904/DTD/svg10.dtd">
<svg version="1.0" xmlns="http://www.w3.org/2000/svg"
 width="512.000000pt" height="512.000000pt" viewBox="0 0 512.000000 512.000000"
 preserveAspectRatio="xMidYMid meet">

<g transform="translate(0.000000,512.000000) scale(0.100000,-0.100000)"
fill="#000000" stroke="none">
<path d="M1700 4945 c-175 -38 -346 -172 -428 -335 -70 -141 -72 -154 -72
-772 0 -582 3 -626 50 -752 18 -48 20 -60 9 -67 -8 -5 -182 -107 -388 -226
-205 -120 -395 -237 -422 -261 -33 -29 -61 -68 -86 -120 l-38 -76 -3 -1063 -2
-1063 25 -25 24 -25 1603 2 c1494 3 1607 4 1663 21 33 9 142 57 242 107 223
110 238 125 238 236 0 66 -3 76 -31 111 -18 22 -51 46 -78 57 -45 19 -49 19
-159 2 -61 -10 -124 -20 -139 -23 l-28 -5 0 346 0 346 55 0 c46 0 60 4 80 25
24 23 25 31 25 133 l0 109 42 17 42 16 76 -75 c111 -110 110 -110 278 58 167
167 167 167 56 278 l-75 76 16 41 17 42 110 0 c102 0 110 1 133 25 25 24 25
26 25 215 0 189 0 191 -25 215 -23 24 -31 25 -133 25 l-110 0 -17 42 -16 41
75 76 c111 112 111 111 -57 279 -168 168 -166 168 -276 58 l-77 -76 -42 16
-42 17 0 109 c0 102 -1 110 -25 133 -24 25 -26 25 -215 25 -189 0 -191 0 -215
-25 -24 -23 -25 -31 -25 -133 l0 -110 -42 -17 -41 -16 -78 77 c-106 105 -112
105 -236 -18 l-93 -93 -53 28 c-96 52 -92 45 -64 124 46 127 49 176 45 843
l-3 625 -34 63 c-56 103 -143 159 -260 169 -63 5 -69 8 -90 39 -30 43 -101 90
-165 109 -67 20 -452 20 -546 0z m524 -159 c18 -8 46 -31 62 -52 27 -35 29
-44 32 -150 l4 -113 -44 -22 c-23 -12 -85 -63 -136 -113 -92 -89 -94 -91 -142
-91 -48 0 -50 2 -142 91 -120 117 -159 139 -258 139 -85 0 -132 -19 -200 -82
l-40 -35 6 33 c34 192 171 344 355 393 76 21 455 22 503 2z m320 -160 c18 -8
46 -31 62 -52 26 -34 29 -46 33 -128 l3 -90 -40 36 c-23 21 -59 46 -82 58
l-40 20 0 85 c0 94 2 97 64 71z m-800 -404 c118 -115 157 -137 256 -137 99 0
138 22 258 139 92 90 94 91 142 91 49 0 50 -1 145 -95 l96 -95 -3 -445 -3
-445 -27 -73 c-38 -104 -83 -176 -158 -252 -76 -76 -167 -132 -265 -163 -57
-18 -93 -22 -190 -22 -104 1 -130 5 -193 27 -166 60 -297 172 -370 318 -68
136 -72 167 -72 640 l0 415 93 92 c50 50 99 93 107 97 8 3 32 4 54 2 32 -4 52
-18 130 -94z m1936 -1243 c0 -79 5 -149 11 -160 5 -11 48 -37 95 -59 320 -148
394 -546 145 -783 -246 -235 -626 -157 -771 157 -22 47 -48 90 -59 95 -11 6
-81 11 -160 11 l-141 0 0 80 0 80 94 0 c75 0 98 4 114 18 27 22 102 204 102
245 0 25 -13 45 -67 99 l-68 68 58 57 57 58 68 -68 c54 -54 74 -67 99 -67 41
0 223 75 246 102 13 16 17 39 17 114 l0 94 80 0 80 0 0 -141z m490 -94 l54
-55 -58 -59 -57 -58 -58 56 -57 56 55 58 c30 31 58 57 61 57 3 0 30 -25 60
-55z m-2687 -133 c30 -26 86 -65 126 -87 69 -39 71 -41 71 -80 0 -23 18 -94
40 -159 l39 -117 -40 -397 c-22 -218 -38 -406 -35 -417 3 -11 68 -82 144 -158
182 -180 162 -180 344 0 76 76 141 147 144 158 3 11 -13 199 -35 417 l-40 397
39 117 c22 65 40 136 40 159 1 40 2 40 84 89 71 41 206 158 234 203 13 20 143
-68 225 -153 l78 -81 -17 -42 -16 -41 -110 0 c-102 0 -110 -1 -133 -25 -25
-24 -25 -26 -25 -215 0 -189 0 -191 25 -215 23 -24 31 -25 133 -25 l110 0 17
-42 16 -41 -75 -76 c-111 -112 -111 -111 57 -279 167 -167 167 -167 278 -56
l76 75 41 -16 42 -17 0 -110 c0 -102 1 -110 25 -133 20 -21 34 -25 80 -25 l55
0 0 -341 0 -342 -36 6 c-29 5 -194 75 -194 82 0 1 11 57 25 125 30 146 31 192
6 245 -34 73 -115 125 -195 125 -52 -1 -101 -30 -344 -203 -128 -92 -241 -167
-251 -167 -47 0 -1095 192 -1120 205 -37 19 -87 69 -109 109 -15 27 -17 68
-20 294 l-3 262 -80 0 -79 0 0 -248 c0 -275 8 -331 60 -412 52 -80 131 -143
212 -169 20 -7 272 -54 560 -105 l523 -92 3 -208 2 -207 -667 3 c-720 4 -684
1 -835 58 -177 66 -372 261 -438 438 -56 150 -54 118 -58 807 -2 476 0 651 9
683 23 84 66 116 478 356 l385 223 37 -44 c21 -24 63 -65 92 -91z m517 -191
c41 0 94 4 118 8 48 10 47 21 8 -97 l-23 -67 -103 0 -103 0 -23 67 c-39 118
-40 107 8 97 24 -4 77 -8 118 -8z m2400 -241 l0 -80 -80 0 -80 0 0 80 0 80 80
0 80 0 0 -80z m-2310 -97 c1 -10 16 -164 34 -343 l34 -325 -79 -80 -79 -80
-79 80 -79 80 34 325 c18 179 33 333 34 343 0 15 11 17 90 17 79 0 90 -2 90
-17z m1058 -468 l-58 -60 -57 58 -58 57 58 58 58 59 58 -56 57 -56 -58 -60z
m1019 -2 l-57 -58 -58 58 -59 58 56 58 56 57 60 -58 60 -58 -58 -57z m-487
-153 l0 -80 -80 0 -80 0 0 80 0 80 80 0 80 0 0 -80z m-516 -516 c22 -21 21
-36 -15 -217 -26 -126 -30 -162 -21 -182 13 -28 151 -102 267 -143 102 -36
268 -41 429 -13 65 11 123 18 127 15 27 -16 -3 -40 -133 -105 -245 -123 -184
-113 -715 -117 l-463 -3 0 220 0 219 238 171 c130 94 245 171 254 171 9 0 24
-7 32 -16z m-2560 -640 c39 -39 87 -82 106 -97 l35 -27 -132 0 -133 0 0 133 0
132 27 -35 c15 -19 58 -67 97 -106z"/>
<path d="M1520 3840 l0 -80 160 0 160 0 0 80 0 80 -160 0 -160 0 0 -80z"/>
<path d="M2160 3840 l0 -80 160 0 160 0 0 80 0 80 -160 0 -160 0 0 -80z"/>
<path d="M1625 3655 c-50 -49 -15 -135 55 -135 41 0 80 39 80 80 0 41 -39 80
-80 80 -19 0 -40 -9 -55 -25z"/>
<path d="M2265 3655 c-50 -49 -15 -135 55 -135 41 0 80 39 80 80 0 41 -39 80
-80 80 -19 0 -40 -9 -55 -25z"/>
<path d="M2000 3345 c0 -88 -2 -98 -25 -120 -20 -21 -34 -25 -80 -25 l-55 0 0
-80 0 -80 58 0 c87 0 144 23 195 80 54 60 67 103 67 224 l0 96 -80 0 -80 0 0
-95z"/>
<path d="M3500 2624 c-192 -70 -273 -277 -179 -455 36 -67 68 -98 143 -137 43
-22 64 -26 136 -27 79 0 90 3 150 36 231 127 222 456 -15 568 -65 31 -172 38
-235 15z m163 -158 c104 -43 128 -175 47 -256 -66 -66 -156 -67 -221 -1 -124
123 13 325 174 257z"/>
</g>
</svg>
