<?xml version="1.0" standalone="no"?>
<!DOCTYPE svg PUBLIC "-//W3C//DTD SVG 20010904//EN"
 "http://www.w3.org/TR/2001/REC-SVG-20010904/DTD/svg10.dtd">
<svg version="1.0" xmlns="http://www.w3.org/2000/svg"
 width="512.000000pt" height="512.000000pt" viewBox="0 0 512.000000 512.000000"
 preserveAspectRatio="xMidYMid meet">

<g transform="translate(0.000000,512.000000) scale(0.100000,-0.100000)"
fill="#000000" stroke="none">
<path d="M2385 5109 c-494 -68 -918 -418 -1075 -887 -63 -189 -65 -213 -65
-707 l0 -450 32 -67 c52 -111 163 -204 266 -223 34 -7 37 -11 53 -64 9 -31 26
-82 39 -113 l23 -57 -491 -3 -492 -3 -67 -32 c-37 -17 -87 -50 -111 -72 -86
-79 -145 -232 -134 -347 3 -33 73 -295 156 -582 l150 -521 -56 -82 c-70 -106
-123 -211 -163 -327 l-33 -92 -136 0 c-110 0 -144 -4 -176 -19 -79 -36 -105
-91 -105 -221 0 -130 26 -185 105 -221 38 -18 133 -19 2453 -19 2149 0 2417 2
2449 15 86 36 113 90 113 225 0 71 -5 105 -19 135 -39 86 -87 105 -264 105
l-134 0 -33 92 c-40 116 -93 221 -163 327 l-56 82 150 519 c82 285 151 543
155 572 8 73 -10 160 -51 244 -42 86 -102 144 -193 187 l-67 32 -492 3 -491 3
23 57 c13 31 30 82 39 113 16 53 19 57 53 64 103 19 214 112 266 223 l32 67 0
450 c0 494 -2 518 -65 707 -148 442 -529 776 -995 873 -95 20 -332 28 -430 14z
m258 -1333 c163 -184 413 -296 740 -331 l59 -7 -4 -301 c-5 -334 -12 -383 -80
-529 l-31 -68 -767 0 -767 0 -31 68 c-69 151 -75 186 -79 524 l-5 306 59 7
c327 35 567 141 730 321 87 96 100 96 176 10z m-1083 -616 l0 -270 -39 19
c-60 31 -100 69 -129 125 -38 73 -38 179 0 251 30 58 67 94 123 123 22 12 41
21 43 22 1 0 2 -122 2 -270z m2121 193 c52 -55 74 -111 74 -193 0 -65 -4 -82
-30 -128 -32 -59 -67 -92 -126 -123 l-39 -19 0 270 0 270 48 -24 c26 -13 59
-37 73 -53z m-1610 -1589 c31 -29 45 -78 35 -118 -3 -14 -58 -90 -121 -170
-63 -81 -115 -151 -115 -156 0 -6 46 -67 102 -138 122 -153 138 -178 138 -217
0 -62 -63 -125 -125 -125 -51 0 -84 31 -232 217 -167 209 -173 218 -173 263 0
17 5 41 11 53 24 46 313 398 338 412 40 23 106 13 142 -21z m657 -9 c49 -54
51 -38 -52 -488 -77 -331 -85 -361 -112 -388 -79 -79 -208 -22 -205 90 0 20
38 199 84 398 59 255 89 369 103 384 52 59 130 60 182 4z m461 30 c26 -13 314
-362 340 -412 14 -28 14 -78 0 -106 -7 -11 -81 -108 -166 -214 -134 -167 -160
-194 -194 -204 -74 -23 -159 39 -159 115 0 40 21 73 141 222 54 68 99 128 99
134 0 6 -45 66 -99 134 -55 68 -109 139 -120 157 -38 61 -23 125 38 166 39 26
80 29 120 8z m-2430 -1123 c24 -86 46 -163 49 -169 3 -10 -27 -13 -128 -13
l-132 0 7 28 c17 69 136 312 153 312 4 0 27 -71 51 -158z m3713 62 c46 -86 80
-166 94 -219 l6 -25 -132 0 c-101 0 -131 3 -128 13 3 6 25 83 49 169 24 87 48
157 53 155 5 -2 31 -43 58 -93z"/>
<path d="M2070 3431 c-46 -15 -85 -39 -116 -73 -54 -57 -69 -95 -69 -178 0
-83 15 -121 69 -178 53 -57 101 -77 186 -77 85 0 133 20 186 77 43 45 64 89
71 149 7 60 14 63 163 63 149 0 156 -3 163 -63 16 -138 138 -239 274 -229 70
5 119 27 166 75 99 98 103 251 9 355 -56 62 -104 83 -192 83 -86 0 -122 -15
-186 -76 l-40 -40 -97 11 c-70 8 -125 8 -197 0 l-100 -11 -31 36 c-18 20 -50
46 -73 57 -44 22 -145 33 -186 19z"/>
</g>
</svg>
