<?xml version="1.0" encoding="UTF-8" standalone="no" ?>
<!DOCTYPE svg PUBLIC "-//W3C//DTD SVG 1.1//EN" "http://www.w3.org/Graphics/SVG/1.1/DTD/svg11.dtd">
<svg xmlns="http://www.w3.org/2000/svg" xmlns:xlink="http://www.w3.org/1999/xlink" version="1.1" width="1080" height="1080" viewBox="0 0 1080 1080" xml:space="preserve">
<desc>Created with Fabric.js 5.2.4</desc>
<defs>
</defs>
<g transform="matrix(1 0 0 1 540 540)" id="8f2bbcee-8c0c-4dc7-a315-3b0782020f6d"  >
<rect style="stroke: none; stroke-width: 1; stroke-dasharray: none; stroke-linecap: butt; stroke-dashoffset: 0; stroke-linejoin: miter; stroke-miterlimit: 4; fill: rgb(255,255,255); fill-rule: nonzero; opacity: 1; visibility: hidden;" vector-effect="non-scaling-stroke"  x="-540" y="-540" rx="0" ry="0" width="1080" height="1080" />
</g>
<g transform="matrix(1 0 0 1 540 540)" id="8b56d940-dca9-4cb5-8d51-ddd1ad09ea53"  >
</g>
<g transform="matrix(1.18 0 0 1.18 540 540)"  >
<g style="" vector-effect="non-scaling-stroke"   >
		<g transform="matrix(1 0 0 1 0 0)"  >
<rect style="stroke: none; stroke-width: 1; stroke-dasharray: none; stroke-linecap: butt; stroke-dashoffset: 0; stroke-linejoin: miter; stroke-miterlimit: 4; fill: rgb(255,255,255); fill-rule: nonzero; opacity: 1; visibility: hidden;" vector-effect="non-scaling-stroke"  x="-540" y="-540" rx="0" ry="0" width="1080" height="1080" />
</g>
		<g transform="matrix(0.78 0 0 -0.66 6.8 -388.92)"  >
<path style="stroke: none; stroke-width: 1; stroke-dasharray: none; stroke-linecap: butt; stroke-dashoffset: 0; stroke-linejoin: miter; stroke-miterlimit: 4; fill: rgb(0,0,0); fill-rule: nonzero; opacity: 1;" vector-effect="non-scaling-stroke"  transform=" translate(-1111.75, -1660.83)" d="M 1211 1730 C 1198 1691 1158 1689 1134 1725 L 1117 1751 L 1088 1723 C 1063 1700 1057 1697 1040 1708 C 1028 1715 1020 1716 1020 1710 C 1020 1689 1000 1701 994 1725 C 986 1759 971 1757 964 1720 C 957 1686 946 1682 931 1708 C 922 1723 921 1723 915 1709 C 904 1680 914 1567 928 1562 C 936 1560 944 1568 947 1580 C 952 1601 956 1602 999 1594 C 1024 1590 1077 1586 1115 1586 C 1154 1586 1206 1590 1231 1594 C 1274 1602 1278 1601 1283 1580 C 1286 1567 1294 1560 1302 1562 C 1311 1566 1314 1586 1313 1635 C 1310 1700 1302 1729 1293 1703 C 1284 1678 1259 1690 1244 1725 C 1236 1744 1228 1760 1226 1760 C 1224 1760 1217 1747 1211 1730 z" stroke-linecap="round" />
</g>
		<g transform="matrix(0.78 0 0 -0.66 13.42 -238.48)"  >
<path style="stroke: none; stroke-width: 1; stroke-dasharray: none; stroke-linecap: butt; stroke-dashoffset: 0; stroke-linejoin: miter; stroke-miterlimit: 4; fill: rgb(0,0,0); fill-rule: nonzero; opacity: 1;" vector-effect="non-scaling-stroke"  transform=" translate(-1120, -1440)" d="M 920 1480 C 920 1460 915 1450 905 1450 C 897 1450 890 1446 890 1440 C 890 1435 897 1430 905 1430 C 915 1430 920 1420 920 1400 L 920 1370 L 1010 1370 L 1100 1370 L 1100 1400 C 1100 1420 1105 1430 1115 1430 C 1125 1430 1130 1420 1130 1400 L 1130 1370 L 1220 1370 L 1310 1370 L 1310 1400 C 1310 1423 1314 1430 1330 1430 C 1341 1430 1350 1435 1350 1440 C 1350 1446 1341 1450 1331 1450 C 1317 1450 1310 1458 1308 1478 L 1305 1505 L 1220 1505 L 1135 1505 L 1132 1478 C 1127 1439 1100 1441 1100 1480 L 1100 1510 L 1010 1510 L 920 1510 L 920 1480 z M 1078 1438 L 1075 1395 L 1016 1392 C 950 1389 940 1396 940 1448 L 940 1480 L 1011 1480 L 1081 1480 L 1078 1438 z M 1281 1473 C 1281 1468 1283 1453 1285 1439 C 1291 1397 1279 1389 1214 1392 L 1155 1395 L 1152 1438 L 1149 1480 L 1214 1480 C 1250 1480 1280 1477 1281 1473 z" stroke-linecap="round" />
</g>
		<g transform="matrix(0.78 0 0 -0.66 0 149.88)"  >
<path style="stroke: none; stroke-width: 1; stroke-dasharray: none; stroke-linecap: butt; stroke-dashoffset: 0; stroke-linejoin: miter; stroke-miterlimit: 4; fill: rgb(0,0,0); fill-rule: nonzero; opacity: 1;" vector-effect="non-scaling-stroke"  transform=" translate(-1103.24, -870)" d="M 590 1160 C 590 1011 589 1000 570 990 C 511 958 504 845 559 799 L 590 774 L 590 597 L 590 420 L 1105 420 L 1620 420 L 1620 597 L 1620 774 L 1653 801 C 1683 826 1685 832 1685 890 C 1685 948 1683 954 1653 979 L 1620 1006 L 1620 1163 L 1620 1320 L 1105 1320 L 590 1320 L 590 1160 z M 1347 908 L 1349 590 L 1120 590 L 890 590 L 890 788 C 889 896 887 1036 883 1099 C 879 1179 881 1214 889 1219 C 895 1223 1000 1226 1123 1226 L 1345 1225 L 1347 908 z M 630 924 C 639 899 639 881 630 856 C 616 813 595 805 569 831 C 551 849 549 861 553 898 C 561 974 609 990 630 924 z M 1644 948 C 1666 917 1664 857 1641 829 C 1622 806 1622 805 1601 824 C 1574 848 1572 924 1597 952 C 1618 975 1626 975 1644 948 z" stroke-linecap="round" />
</g>
		<g transform="matrix(0.78 0 0 -0.66 13.06 126.06)"  >
<path style="stroke: none; stroke-width: 1; stroke-dasharray: none; stroke-linecap: butt; stroke-dashoffset: 0; stroke-linejoin: miter; stroke-miterlimit: 4; fill: rgb(0,0,0); fill-rule: nonzero; opacity: 1;" vector-effect="non-scaling-stroke"  transform=" translate(-1119.5, -905)" d="M 910 1165 L 910 1131 L 1058 1128 C 1181 1125 1205 1123 1205 1110 C 1205 1097 1181 1095 1058 1092 L 910 1089 L 910 985 L 910 880 L 1090 880 C 1264 880 1270 879 1270 860 C 1270 840 1265 840 1093 842 L 915 845 L 912 787 L 909 730 L 997 730 C 1157 730 1280 718 1280 703 C 1280 693 1244 690 1095 690 L 910 690 L 910 650 L 910 610 L 1120 610 L 1330 610 L 1330 685 L 1330 760 L 1138 762 C 974 765 945 767 945 780 C 945 793 974 795 1138 798 L 1330 800 L 1330 900 L 1330 1000 L 1140 1000 C 978 1000 950 1002 950 1015 C 950 1028 978 1030 1140 1030 L 1330 1030 L 1330 1115 L 1330 1200 L 1120 1200 L 910 1200 L 910 1165 z" stroke-linecap="round" />
</g>
</g>
</g>
</svg>