<?xml version="1.0" standalone="no"?>
<!DOCTYPE svg PUBLIC "-//W3C//DTD SVG 20010904//EN"
 "http://www.w3.org/TR/2001/REC-SVG-20010904/DTD/svg10.dtd">
<svg version="1.0" xmlns="http://www.w3.org/2000/svg"
 width="512.000000pt" height="512.000000pt" viewBox="0 0 512.000000 512.000000"
 preserveAspectRatio="xMidYMid meet">

<g transform="translate(0.000000,512.000000) scale(0.100000,-0.100000)"
fill="#000000" stroke="none">
<path d="M2456 5109 c-63 -15 -155 -69 -198 -118 -54 -61 -88 -137 -100 -226
-11 -73 -11 -73 -49 -84 -20 -6 -49 -25 -63 -42 -25 -29 -26 -37 -26 -144 0
-111 1 -114 26 -134 31 -24 43 -26 78 -10 32 15 46 56 46 130 l0 59 380 0 380
0 0 -290 0 -290 -380 0 -380 0 0 49 c0 59 -16 108 -40 121 -30 16 -64 12 -88
-10 -20 -19 -22 -31 -22 -122 0 -93 2 -104 25 -134 35 -46 74 -54 263 -54
l162 0 0 -214 0 -214 -53 -6 c-126 -16 -302 -99 -404 -190 -28 -25 -54 -46
-58 -46 -3 0 -52 36 -108 80 l-101 80 -191 2 -190 3 -3 103 c-1 56 0 102 2
102 3 0 20 -9 38 -20 42 -25 59 -25 92 1 26 20 35 69 18 96 -4 6 -151 126
-327 267 -270 216 -325 256 -352 256 -28 0 -83 -41 -357 -259 -178 -143 -327
-269 -331 -281 -9 -30 12 -75 41 -89 35 -15 48 -14 77 9 14 11 28 20 31 20 3
0 6 -120 6 -266 0 -306 3 -319 74 -354 41 -19 60 -20 452 -20 248 0 423 4 446
10 20 6 48 24 62 41 24 28 26 38 26 130 l0 99 166 0 166 0 83 -65 83 -64 -44
-88 c-65 -132 -87 -223 -87 -373 0 -150 21 -240 86 -370 l44 -87 -83 -66 -83
-67 -196 0 -195 0 0 88 c-1 130 -26 184 -102 223 -34 17 -63 19 -362 19 -205
0 -335 -4 -353 -11 -34 -13 -80 -55 -99 -91 -12 -22 -14 -122 -14 -570 l0
-543 23 -40 c13 -22 40 -49 62 -62 39 -22 46 -23 378 -23 370 0 370 0 421 60
36 43 48 100 44 203 -3 79 -6 91 -27 108 -31 26 -73 24 -99 -4 -18 -19 -22
-37 -24 -117 l-3 -95 -313 -3 -312 -2 2 517 3 518 304 3 c237 2 306 -1 313
-10 4 -7 8 -133 8 -280 l0 -267 26 -20 c43 -34 86 -26 109 20 10 19 15 60 15
129 l0 100 218 0 219 0 39 29 c21 15 70 53 108 84 l70 56 40 -37 c113 -104
281 -185 429 -206 l47 -7 0 -158 0 -158 -40 -7 c-152 -24 -316 -170 -377 -336
-24 -64 -28 -90 -28 -175 0 -156 39 -251 157 -382 62 -70 78 -112 78 -205 0
-104 23 -162 89 -229 46 -46 70 -61 116 -74 73 -22 145 -15 211 18 107 55 154
138 162 287 5 109 21 148 87 219 100 107 145 220 146 359 0 92 -14 127 -55
138 -13 3 -37 -1 -54 -10 -34 -17 -41 -41 -41 -125 0 -105 -30 -175 -115 -271
-55 -62 -106 -149 -106 -182 0 -17 -12 -18 -150 -18 -113 0 -150 3 -150 13 0
31 -56 125 -107 181 -31 33 -70 90 -87 126 -27 58 -31 75 -31 155 0 76 4 99
27 148 38 80 114 158 191 193 55 26 73 29 159 29 94 0 98 -1 178 -42 45 -24
87 -43 94 -43 8 0 25 9 40 21 35 28 36 81 2 113 -33 30 -123 73 -188 90 l-53
13 -3 154 -2 155 88 18 c144 29 276 95 397 199 l39 34 104 -83 104 -84 139 0
138 0 3 -230 3 -230 33 -32 32 -33 181 -3 c159 -3 180 -5 175 -19 -4 -9 -11
-35 -17 -59 -11 -41 -14 -44 -44 -44 -48 0 -64 -8 -81 -42 -19 -37 -5 -80 32
-97 17 -7 123 -11 323 -11 287 0 299 1 325 21 54 43 21 124 -53 131 -33 3 -36
6 -48 53 -7 28 -13 53 -13 58 0 4 73 7 163 7 145 0 165 2 195 20 60 37 62 50
62 452 0 400 -1 407 -63 452 -28 21 -38 21 -575 21 -521 0 -548 -1 -575 -19
-44 -30 -57 -65 -57 -161 l0 -85 -112 0 -113 0 -70 56 c-106 84 -101 72 -62
145 44 80 84 208 93 293 6 60 5 66 -19 90 -15 15 -37 26 -52 26 -35 0 -75 -42
-75 -78 0 -53 -39 -182 -77 -255 -55 -106 -182 -231 -290 -285 -114 -56 -208
-76 -342 -70 -177 8 -317 72 -446 202 -78 79 -130 169 -166 286 -29 95 -31
252 -5 350 50 186 186 351 357 433 112 54 184 71 304 70 254 -1 484 -145 595
-370 17 -35 40 -67 50 -73 51 -28 110 5 110 61 0 17 -16 62 -37 101 -35 66
-35 69 -17 82 10 8 48 37 83 65 l64 51 96 0 96 0 22 -34 c30 -47 103 -104 165
-129 50 -21 70 -22 418 -25 249 -2 384 0 425 8 176 35 313 174 346 353 40 217
-110 438 -332 489 -27 6 -49 15 -49 19 0 4 -23 32 -51 63 -153 168 -415 175
-582 17 -58 -54 -98 -120 -116 -188 -9 -34 -17 -43 -41 -48 -48 -10 -143 -80
-179 -130 -41 -58 -71 -141 -71 -200 l0 -45 -99 0 -99 0 -102 -80 c-56 -44
-105 -80 -109 -80 -4 0 -18 12 -32 26 -38 41 -177 129 -249 158 -36 15 -104
35 -152 44 l-88 17 0 213 0 212 172 0 c152 0 176 2 214 20 73 36 74 41 74 419
0 359 -3 381 -54 414 -14 10 -39 20 -55 23 -27 6 -29 9 -33 74 -17 235 -250
403 -482 349z m190 -163 c88 -41 144 -125 144 -218 l0 -38 -246 0 -247 0 7 53
c22 174 189 274 342 203z m-1617 -1158 l180 -143 0 -312 1 -313 -380 0 -380 0
0 309 0 309 188 151 c103 83 192 148 199 146 7 -2 93 -68 192 -147z m3336 53
c28 -16 64 -48 82 -72 67 -91 65 -90 129 -99 149 -20 247 -129 248 -275 1
-116 -59 -211 -163 -259 -44 -20 -60 -21 -427 -21 l-381 0 -49 30 c-88 54
-127 171 -88 263 33 81 110 132 196 132 88 -1 142 -35 211 -134 14 -20 27 -26
54 -26 84 0 99 74 33 161 -46 61 -134 125 -185 135 -41 7 -42 12 -16 63 65
126 227 173 356 102z m383 -2078 l2 -323 -485 0 -485 0 0 325 0 325 483 -2
482 -3 3 -322z m-413 -525 c8 -28 15 -55 15 -60 0 -4 -38 -8 -84 -8 l-84 0 16
60 16 60 53 0 52 0 16 -52z m-1655 -982 c0 -36 -58 -93 -103 -101 -47 -9 -78
-1 -115 30 -30 25 -56 78 -45 89 4 3 64 6 135 6 l128 0 0 -24z"/>
<path d="M740 3643 c-44 -23 -60 -39 -83 -83 -25 -47 -28 -63 -24 -109 7 -63
43 -123 93 -153 30 -18 34 -25 34 -63 0 -58 30 -95 76 -95 49 0 74 29 74 86 0
43 4 50 46 87 56 49 74 88 74 159 0 102 -76 184 -181 194 -46 5 -62 2 -109
-23z m121 -133 c23 -13 26 -62 5 -79 -46 -38 -111 25 -71 69 20 22 37 25 66
10z"/>
<path d="M2444 4421 c-26 -11 -54 -49 -54 -72 0 -25 39 -69 61 -69 17 0 19 -8
19 -74 0 -89 21 -126 74 -126 58 0 70 18 76 112 5 77 7 83 27 86 50 7 72 92
32 128 -16 15 -39 19 -117 21 -53 2 -107 -1 -118 -6z"/>
<path d="M2391 2929 c-161 -32 -351 -138 -351 -197 0 -31 42 -74 72 -74 15 0
53 15 85 34 66 40 147 73 213 88 68 15 228 12 295 -5 67 -18 171 -63 217 -96
61 -44 128 -17 128 52 0 34 -5 43 -42 70 -67 48 -176 96 -268 119 -91 21 -263
26 -349 9z"/>
<path d="M2445 2650 c-107 -22 -221 -85 -232 -128 -9 -36 8 -75 40 -90 25 -12
34 -10 110 28 138 68 257 65 392 -11 59 -33 89 -30 119 13 21 30 20 50 -5 82
-64 81 -280 135 -424 106z"/>
<path d="M2487 2366 c-92 -25 -136 -81 -102 -132 26 -41 59 -47 112 -23 l46
21 54 -21 c47 -18 59 -19 81 -9 33 16 49 58 36 95 -11 31 -79 69 -139 76 -22
3 -62 0 -88 -7z"/>
<path d="M772 2027 c-48 -51 -10 -127 63 -127 48 0 79 29 79 75 0 27 -6 43
-23 56 -33 27 -92 25 -119 -4z"/>
</g>
</svg>
